<?xml version="1.0" encoding="UTF-8" standalone="no"?>
<svg
   viewBox="0 0 423.10056 303.16125"
   fill-rule="evenodd"
   version="1.1"
   id="svg3"
   sodipodi:docname="handshake-edit.svg"
   inkscape:version="1.4 (e7c3feb1, 2024-10-09)"
   xmlns:inkscape="http://www.inkscape.org/namespaces/inkscape"
   xmlns:sodipodi="http://sodipodi.sourceforge.net/DTD/sodipodi-0.dtd"
   xmlns="http://www.w3.org/2000/svg"
   xmlns:svg="http://www.w3.org/2000/svg">
  <defs
     id="defs3" />
  <sodipodi:namedview
     id="namedview3"
     pagecolor="#ffffff"
     bordercolor="#000000"
     borderopacity="0.25"
     inkscape:showpageshadow="2"
     inkscape:pageopacity="0.0"
     inkscape:pagecheckerboard="0"
     inkscape:deskcolor="#d1d1d1"
     showguides="false"
     inkscape:zoom="0.40868483"
     inkscape:cx="-4.8937466"
     inkscape:cy="352.34976"
     inkscape:current-layer="g3" />
  <g
     transform="matrix(0.1,0,0,-0.1,-117.53616,341.2)"
     id="g3">
    <path
       fill="#aa96e1"
       d="m 1885,3296 c -47,-22 -153,-144 -235,-271 -8,-13 -31,-47 -51,-77 -20,-29 -48,-75 -63,-103 -14,-27 -30,-57 -35,-65 -5,-8 -18,-35 -30,-60 -12,-25 -26,-52 -31,-60 -17,-28 -122,-253 -136,-293 -8,-22 -14,-68 -14,-104 0,-58 3,-66 30,-93 17,-17 36,-30 42,-30 6,0 19,-7 28,-15 17,-16 90,-58 129,-75 13,-6 41,-24 61,-40 21,-17 41,-30 45,-30 3,0 36,-30 72,-66 74,-74 42.3555,-133.1132 154.3555,-92.1132 55,20 40.5313,-34.0547 95.5313,-44.0547 51,-11 89.4101,-23.0586 134.4101,-67.0586 29,-29 55.9414,-69.1172 95.5859,-12.7696 7.9414,-64.8202 36.3516,-52.5273 80.3516,-51.5273 28,1 50.2773,14.6915 73.2773,22.6915 39,12 18.5678,12.2669 78.5678,-7.7331 37,-12 71.983,-23.5482 92.983,-40.5482 37,-29 137.9375,-58.8868 137.9375,-91.8868 0,-21 21,-39 45,-39 38,0 102.2969,-73.4687 150.2969,-114.4687 60,-51 121.7031,-75.5313 133.7031,-159.5313 5,-36 13,-70 16,-77 4,-6 31,-21 59,-34 73,-33 102,-69 165,-208 13,-30 31,-52 48,-60 16,-6 56,-31 91,-54 34,-24 66,-43 70,-43 4,0 27,-14 51,-30 57,-39 163,-70 237,-70 69,0 184,37 220,71 18,17 24,33 24,66 0,39 -3,45 -38,65 -175,105 -388,262 -479,354 -48,48 -67,84 -45,84 24,0 152,-84 267,-176 103,-82 318,-217 393,-247 56,-23 160,-22 209,1 77,35 137,109 149,181 10,61 0,83 -56,119 -28,18 -74,53 -103,76 -29,23 -59,47 -68,52 -9,5 -34,23 -55,41 -21,17 -100,80 -174,139 -189,150 -276,244 -225,244 19,0 154,-99 388,-284 62,-49 122,-93 135,-99 12,-6 22,-13 22,-17 0,-4 37,-32 83,-61 l 82,-54 h 107 107 l 37,35 c 87,83 106,192 53,298 -32,64 -156,195 -269,284 -30,24 -64,53 -75,65 -16,17 -172,154 -245,215 -59,50 -292,240 -334,273 -147,116 -247,165 -335,165 -46,0 -122,-28 -135,-49 -4,-6 -31,-29 -59,-50 -29,-21 -61,-47 -72,-58 -41,-38 -129,-95 -169,-109 -22,-9 -75,-22 -116,-30 -129,-24 -267,13 -346,93 -45,47 -84,126 -84,173 0,49 42,133 92,187 24,25 60,64 81,87 22,22 56,59 77,81 20,22 72,80 114,129 60,69 76,94 74,115 l -3,26 -255,1 c -277,1 -311,6 -437,68 -29,14 -59,26 -67,26 -7,0 -19,7 -26,15 -7,9 -38,28 -69,42 -65,31 -151,39 -196,19 z M 3181,717 c -2005.6384,2695 -2005.6384,2695 0,0 z"
       id="path1"
       sodipodi:nodetypes="ccccssccssscccssccccccccsscccccccscsssccsccccsssccsccscccccsccccsccccccsccccccccsccccc" />
    <path
       fill="#82cdcd"
       d="m 3390,3191 c -245,-43 -321,-92 -562,-361 -42,-47 -108,-119 -147,-160 -79,-84 -97,-125 -87,-205 4,-43 11,-56 47,-87 47,-43 87,-57 180,-65 89,-7 204,18 258,58 23,16 44,29 48,29 5,0 44,34 88,76 128,120 225,157 338,128 34,-8 73,-22 88,-30 37,-19 156,-100 205,-141 23,-18 44,-33 47,-33 3,0 20,-13 39,-29 18,-16 94,-79 168,-141 166,-137 183,-152 294,-254 49,-44 96,-85 105,-90 9,-5 30,-23 46,-40 98,-100 146,-136 182,-136 35,0 103,33 103,50 0,5 11,15 24,22 14,7 49,32 78,56 82,67 188,142 199,142 12,0 92,56 130,92 26,23 29,33 29,85 0,33 -9,84 -20,116 -11,31 -20,61 -20,67 0,6 -13,40 -30,75 -16,35 -30,69 -30,76 0,10 -38,94 -118,259 -12,25 -31,59 -42,75 -10,17 -31,53 -45,80 -15,28 -33,54 -41,58 -8,4 -14,14 -14,22 0,18 -112,168 -141,189 -16,11 -45,16 -88,16 -59,0 -76,-5 -189,-61 -141,-70 -186,-80 -264,-54 -111,37 -136,43 -233,64 -55,12 -129,29 -164,37 -73,17 -389,27 -461,15 z M 2632,1378 c -7,-7 -12,-16 -12,-21 0,-19 -61,-130 -102,-185 -45,-60 -177,-194 -223,-226 -27,-18 -27,-21 -22,-90 4,-68 6,-72 48,-109 55,-49 99,-67 163,-67 96,1 189,66 290,205 86,117 116,194 116,292 0,127 -76,213 -190,213 -31,0 -61,-5 -68,-12 z m 305,-375 c -14,-31 -61,-108 -104,-168 -15,-21 -58,-69 -95,-105 -59,-58 -68,-71 -68,-102 0,-47 35,-102 80,-125 44,-22 134,-22 176,0 42,21 111,94 136,141 56,108 74,235 42,299 -31,62 -64,87 -111,87 -38,0 -45,-4 -56,-27 z"
       id="path2"
       sodipodi:nodetypes="cccccccsccccscccscssccscscscscccsscscscccssccccccssscccscccssc" />
    <path
       fill="#1f2433"
       d="m 1814,3372 c -82,-53 -249,-261 -322,-399 -12,-24 -34,-62 -49,-85 -28,-44 -122,-228 -157,-309 -11,-24 -25,-50 -30,-58 -10,-13 -18,-32 -58,-146 -31,-85 -30,-184 2,-227 26,-37 45.5313,-121.8789 86.5313,-143.8789 66,-36 487.9506,-304.5553 618.2547,-354.7112 87.0501,-33.5069 244.9647,-138.7277 154.2606,-360.8456 C 2000.4632,1145.1043 2267,649 2319,615 c 42,-26 122,-45 191,-45 48,0 49,-1 87,-57 70,-103 168,-146 291,-129 42,6 119,38 132,55 3,3 19,18 37,32 l 31,26 c 196.7155,326.75388 403.3919,-73.08023 939,168 59,59 69,65 106,65 93,1 173,25 231,69 31,23 62,44 70,47 17,7 60,93 83,166 16,55 18,57 57,63 129,19 221,86 274,198 43,89 45,190 7,269 -14,28 -25,57 -25,63 0,16 74,84 155,143 39,28 88,66 110,83 22,17 63,45 90,63 225,146 252,194 197,361 -5,17 -18,57 -27,90 -10,33 -24,74 -31,90 -7,17 -29,73 -49,125 -20,52 -40,102 -45,110 -5,8 -30,56 -54,105 -77,153 -160,290 -230,376 -12,14 -32,40 -45,57 -13,18 -47,46 -75,64 -43,27 -61,32 -117,32 -36,1 -77,-4 -90,-11 -13,-6 -64,-30 -114,-53 -49,-23 -99,-46 -111,-52 -34,-16 -160,-3 -289,31 -66,17 -136,36 -155,41 -19,4 -64,16 -100,25 -81,22 -348,31 -440,16 -86,-13 -170,-34 -248,-61 -58,-19 -70,-20 -145,-9 -53,8 -152,10 -288,7 -280,-8 -345,0 -450,51 -46,23 -113,57 -149,78 -59,33 -73,36 -160,40 l -95,5 z m 249,-115 c 29,-15 60,-33 67,-42 7,-8 19,-15 26,-15 8,0 38,-12 67,-26 130,-64 159,-68 434,-66 144,1 254,-2 258,-7 5,-9 -93,-128 -185,-226 -21,-22 -55,-59 -77,-81 -21,-23 -57,-62 -81,-87 -118,-127 -122,-284 -8,-400 50,-51 101,-74 199,-93 70,-14 94,-14 162,-4 134,21 224,63 310,143 21,20 104,86 157,124 87,64 207,24 404,-132 42,-33 278,-226 334,-273 73,-61 229,-198 245,-215 11,-12 45,-41 75,-65 30,-24 96,-83 147,-133 97,-94 153,-184 153,-243 0,-44 -41,-125 -84,-166 -37,-34 -38,-35 -124,-35 h -87 l -82,54 c -46,29 -83,57 -83,61 0,4 -10,11 -22,17 -13,6 -73,50 -135,99 -241,191 -382,294 -403,294 -9,0 -24,-6 -35,-13 -44,-33 23,-113 235,-281 74,-59 153,-122 174,-139 21,-18 46,-36 55,-41 9,-5 40,-29 69,-53 30,-24 71,-55 91,-68 63,-39 73,-54 66,-93 -19,-100 -129,-192 -230,-192 -54,0 -106,20 -205,78 -68,40 -225,146 -275,186 -127,102 -259,186 -290,186 -16,0 -35,-30 -35,-54 0,-37 171,-186 366,-319 114,-77 119,-80 176,-115 45,-27 50,-57 14,-91 -31,-29 -149,-71 -200,-71 -56,0 -166,35 -217,70 -24,16 -47,30 -51,30 -4,0 -36,19 -70,43 -35,23 -75,48 -91,54 -17,8 -35,30 -48,60 -63,139 -92,175 -165,208 -28,13 -55,28 -59,34 -3,7 -11,41 -16,77 -38.7487,142.481 -289.6265,258.3501 -425.8558,383.6643 -118.5273,60.4726 -151.2969,120.4687 -302.2969,54.4687 -12,-5 -496.8473,211.867 -543.8473,259.867 -36,36 -69,66 -72,66 -4,0 -24,13 -45,30 -20,16 -48,34 -61,40 -39,17 -112,59 -129,75 -9,8 -22,15 -28,15 -6,0 -25,13 -42,30 -24,24 -30,38 -30,73 0,25 6,62 14,84 14,40 119,265 136,293 5,8 19,35 31,60 12,25 25,52 30,60 5,8 21,38 35,65 15,28 43,74 63,103 20,30 43,64 51,77 41,63 119,165 160,208 77,83 129,93 233,44 z m 1769,-101 c 35,-8 108,-25 163,-37 97,-21 122,-27 233,-64 93,-30 157,-19 303,53 135,67 192,78 238,46 29,-21 141,-171 141,-189 0,-8 6,-18 14,-22 8,-4 26,-30 41,-58 14,-27 35,-63 45,-80 11,-16 30,-50 42,-75 80,-165 118,-249 118,-259 0,-7 14,-41 30,-76 17,-35 30,-69 30,-75 0,-6 9,-36 20,-67 29,-83 27,-128 -9,-161 -38,-36 -118,-92 -130,-92 -11,0 -117,-75 -199,-142 -29,-24 -64,-49 -78,-56 -13,-7 -24,-17 -24,-22 0,-11 -63,-50 -83,-50 -15,0 -93,66 -162,136 -16,17 -37,35 -46,40 -9,5 -56,46 -105,90 -111,102 -128,117 -294,254 -74,62 -150,125 -168,141 -19,16 -36,29 -39,29 -3,0 -25,15 -48,34 -178,146 -316,202 -439,176 -86,-18 -142,-50 -231,-134 -44,-42 -83,-76 -88,-76 -4,0 -25,-13 -48,-29 -26,-19 -68,-36 -116,-47 -115,-25 -211,-8 -280,51 -79,68 -68,142 38,255 39,41 105,113 147,160 241,269 317,318 562,361 68,12 351,2 422,-15 z M 2770,1349 c 88,-54 121,-156 85,-260 -49,-143 -194,-322 -298,-369 -77,-35 -139,-22 -215,47 -37,33 -44,45 -49,89 -5,48 -4,53 22,70 288.6501,200.8001 293.7349,520.3676 455,423 z m 272,-366 c 74,-80 74,-175 0,-319 -25,-47 -94,-119 -135,-140 -38,-20 -96,-20 -138,0 -35,17 -79,75 -79,104 0,8 30,45 68,82 37,36 80,84 95,105 43,60 90,137 104,168 9,18 20,27 36,27 13,0 35,-12 49,-27 z"
       id="path3"
       sodipodi:nodetypes="ccccccccsscscccccccccccccscsccccssccccccccccccccccccccccsccccccccccccccscscsccsccscccscccsccsscccscscccccccccscccsssccssccccccccccsscccscsccsccsscscccscccsccccccccccccccccccscccsc" />
    <g
       inkscape:groupmode="layer"
       id="layer1"
       inkscape:label="Layer 1"
       transform="matrix(10,0,0,-10,1175.3616,3412)">
      <path
         d="m 120.52237,232.37834 c 5.6,-3.5 12.23556,-11.54727 13.73556,-15.74727 1.8,-5.2 4.86445,-14.08242 2.96445,-18.58242 -2.2,-5.1 -10.70391,-11.3221 -14.55932,-11.7651 -3.85541,-0.443 -2.58334,-2.02234 -5.75827,-0.0876 -1.7376,1.05884 -1.65721,0.66859 -3.18512,2.07675 -1.52791,1.40815 -2.99314,2.84541 -4.15967,3.82005 -1.16652,0.97464 -3.79326,3.40807 -5.33295,5.67439 -1.53969,2.26633 -2.65721,5.02266 -6.470325,10.22114 -2.252341,3.07065 -3.515904,8.59938 -4.434352,11.1604 -0.918448,2.56102 0.4,5.7 0.4,5.7 0.5,5.2 0.9,6 4.8,9.5 4.099997,3.6 4.499997,3.8 11.399997,3.8 5.5,0 7.9,-4.17031 10.6,-5.77031 z"
         style="fill:#82cdcd;stroke-width:0.1"
         id="path1-7"
         sodipodi:nodetypes="cccsssssssccsc" />
    </g>
  </g>
</svg>
