<svg xmlns="http://www.w3.org/2000/svg" viewBox="0 0 296.65646 353.7536" fill-rule="evenodd"><g transform="matrix(0.1,0,0,-0.1,-94.243704,407.97565)"><path fill="#6dc3ff" d="m 1607,4057 c -71,-27 -133,-79 -180,-149 -50,-76 -66,-204 -48,-380 7,-68 19,-133 27,-145 8,-12 14,-32 14,-43 0,-12 5,-31 12,-43 6,-12 15,-35 19,-52 13,-49 38,-116 69,-183 17,-35 30,-71 30,-81 0,-10 7,-24 15,-31 8,-7 15,-19 15,-28 0,-8 6,-23 13,-31 7,-9 24,-41 37,-71 13,-30 39,-89 58,-130 19,-41 38,-84 43,-95 31,-77 51,-122 59,-136 5,-9 21,-52 35,-95 15,-44 31,-83 35,-89 8,-11 40,-104 40,-117 0,-4 -25,5 -56,22 -31,16 -72,32 -92,36 -21,4 -45,11 -56,16 -10,6 -69,17 -130,24 -222,29 -410,-22 -516,-137 -45,-49 -85,-113 -93,-149 -30,-132 -13,-250 45,-312 39,-40 133,-108 151,-108 11,0 59,-13 217,-57 177,-50 306,-107 390,-173 19,-15 43,-31 52,-36 9,-5 50,-41 90,-80 74,-71 195,-164 239,-184 13,-6 52,-26 86,-44 34,-19 100,-46 147,-62 65,-21 87,-32 91,-48 57,-209 116,-271 297,-312 126,-29 345,-3 521,62 20,8 56,21 80,30 181,67 389,223 480,359 63,95 85,219 48,279 -10,17 -22,60 -26,96 -6,54 -13,73 -43,108 l -35,44 17,76 c 25,121 36,213 36,314 0,95 -21,300 -40,397 -5,29 -10,67 -10,83 0,17 -6,44 -13,61 -19,44 -37,95 -48,137 -12,42 -32,94 -69,175 -15,33 -32,72 -38,86 -35,87 -184,279 -251,324 -106,72 -118,76 -246,82 -70,3 -145,0 -180,-6 -33,-7 -64,-12 -70,-12 -5,-1 -55,16 -110,36 -145,53 -238,58 -359,17 l -88,-29 -34,75 c -19,41 -44,102 -55,136 -11,33 -31,85 -45,114 -13,29 -24,55 -24,57 0,7 -38,93 -57,130 -8,17 -27,52 -41,79 -43,81 -133,170 -198,195 -75,28 -178,28 -257,-2 z"/><path fill="#1f2433" d="m 1627,4037 c -70,-27 -133,-79 -179,-149 -50,-75 -66,-191 -48,-350 7,-62 19,-123 26,-135 8,-12 14,-32 14,-43 0,-12 5,-31 12,-43 6,-12 15,-35 19,-52 13,-49 38,-116 69,-183 17,-35 30,-71 30,-81 0,-10 7,-24 15,-31 8,-7 15,-19 15,-28 0,-8 6,-23 13,-31 7,-9 24,-41 37,-71 13,-30 39,-89 58,-130 19,-41 38,-84 43,-95 31,-77 51,-122 59,-136 5,-9 21,-52 35,-95 15,-44 31,-83 35,-89 15,-20 52,-146 46,-160 -6,-17 -40,-8 -109,28 -27,15 -65,29 -85,33 -21,4 -46,11 -56,16 -38,20 -224,36 -299,26 -177,-23 -270,-78 -362,-209 -72,-104 -69,-270 7,-351 39,-40 133,-108 151,-108 11,0 59,-13 217,-57 177,-50 306,-107 390,-173 19,-15 43,-31 52,-36 9,-5 50,-41 90,-80 74,-71 195,-164 239,-184 13,-6 52,-26 86,-44 34,-19 100,-46 147,-62 65,-21 87,-32 91,-48 57,-209 116,-271 297,-312 115,-26 312,0 483,63 22,9 58,22 80,30 180,66 390,225 480,363 28,43 47,86 55,129 12,57 12,67 -5,97 -10,19 -21,34 -24,34 -3,0 -7,30 -8,67 -3,59 -7,70 -38,109 -38,46 -44,80 -25,144 17,58 40,239 40,314 0,77 -23,288 -40,375 -5,29 -10,67 -10,83 0,17 -6,44 -13,61 -19,44 -37,95 -48,137 -12,42 -32,94 -69,175 -15,33 -32,72 -38,86 -35,87 -184,279 -251,324 -117,80 -113,79 -271,79 -121,1 -151,-2 -178,-17 -25,-13 -37,-15 -46,-7 -28,22 -214,81 -276,87 -57,5 -78,1 -168,-30 l -103,-35 -14,22 c -18,28 -95,210 -95,226 0,6 -13,41 -30,77 -16,35 -30,66 -30,69 0,6 -38,94 -57,129 -8,17 -27,52 -41,79 -14,27 -52,77 -84,111 -95,102 -206,129 -331,82 z m 163,-117 c 20,-5 50,-24 66,-42 34,-36 74,-99 74,-116 0,-6 11,-27 25,-47 13,-20 38,-71 54,-113 16,-42 41,-101 55,-129 14,-29 26,-58 26,-64 0,-6 23,-58 50,-116 28,-58 50,-112 50,-121 0,-8 7,-23 15,-32 9,-10 33,-55 53,-101 85,-189 235,-396 281,-387 10,2 17,16 19,40 3,35 -30,110 -101,230 -64,107 -97,175 -95,192 5,30 90,56 185,56 130,0 232,-39 311,-119 54,-54 122,-143 122,-159 0,-13 66,-82 78,-82 21,0 32,39 26,82 -8,48 -35,107 -71,155 -14,18 -23,42 -21,55 3,21 8,23 77,26 84,3 113,-5 188,-56 51,-34 153,-144 153,-164 0,-6 12,-27 28,-47 25,-34 46,-73 77,-146 6,-16 21,-50 32,-75 11,-25 28,-70 38,-100 9,-30 21,-68 27,-85 5,-16 13,-46 17,-66 4,-19 11,-41 15,-47 10,-16 44,-257 52,-361 3,-47 1,-117 -5,-156 -6,-38 -16,-106 -22,-150 -6,-44 -15,-89 -20,-100 -6,-11 -10,-29 -11,-40 -3,-59 96,-191 134,-179 10,3 27,2 38,-1 23,-7 27,-35 5,-35 -8,0 -15,5 -15,10 0,6 -4,10 -8,10 -13,0 -32,-71 -32,-116 -1,-116 -152,-274 -383,-398 -36,-20 -71,-36 -78,-36 -6,0 -33,-10 -58,-21 -72,-34 -80,-36 -179,-58 -163,-36 -290,-24 -370,37 -43,33 -60,67 -86,176 l -21,90 -55,17 c -30,9 -77,22 -105,28 -27,7 -66,20 -85,30 -156,82 -201,113 -325,227 -49,46 -112,98 -139,116 -28,18 -61,41 -75,50 -14,10 -46,29 -71,43 -25,14 -52,29 -60,34 -13,8 -45,18 -215,68 -27,8 -63,20 -80,25 -16,6 -53,14 -80,19 -28,5 -74,20 -102,34 -62,29 -103,90 -103,151 0,55 62,160 117,196 49,34 175,68 247,68 88,0 261,-45 370,-96 41,-19 78,-34 83,-34 12,0 93,-78 119,-115 19,-27 23,-29 47,-18 26,12 27,16 27,87 0,42 -6,95 -14,118 -14,43 -37,123 -55,188 -5,19 -19,60 -31,90 -12,30 -26,69 -32,85 -6,17 -14,35 -18,40 -4,6 -10,24 -14,40 -4,17 -20,57 -35,90 -16,33 -36,80 -46,105 -18,48 -23,58 -115,254 -34,71 -64,142 -67,158 -3,15 -12,33 -19,39 -8,6 -14,19 -14,28 0,9 -6,25 -13,36 -7,11 -24,54 -37,95 -12,41 -29,91 -36,110 -29,81 -39,140 -38,230 1,109 13,144 71,208 55,62 126,84 203,62 z"/></g></svg>