<svg xmlns="http://www.w3.org/2000/svg" viewBox="0 0 385.10001 198.97023" fill-rule="evenodd"><g transform="matrix(0.1,0,0,-0.1,-135,293.98486)"><path fill="#f1cd6a" d="m 4170,2923 c -19,-9 -51,-23 -70,-32 -39,-18 -104,-66 -167,-125 -23,-21 -55,-49 -70,-62 -16,-12 -44,-37 -63,-54 -19,-17 -59,-47 -88,-67 l -54,-35 -196,5 c -122,3 -218,11 -252,20 -68,17 -203,71 -250,99 -83,48 -269,88 -416,88 -304,0 -567,-119 -725,-329 -27,-35 -49,-70 -49,-77 0,-19 -25,-29 -100,-43 -54,-11 -77,-22 -139,-69 -121,-92 -181,-210 -181,-355 0,-88 17,-162 61,-255 16,-35 29,-67 29,-72 0,-10 74,-119 138,-205 60,-79 150,-169 237,-236 39,-29 72,-56 75,-60 10,-12 152,-79 169,-79 9,0 22,-5 29,-12 7,-7 57,-14 130,-16 116,-4 120,-4 180,26 92,46 130,79 179,155 l 44,69 42,-8 c 59,-11 516,-7 607,5 41,5 109,17 150,26 41,9 93,20 115,24 77,16 180,44 212,58 17,7 38,13 46,13 9,0 18,4 21,9 3,4 20,11 38,15 18,3 47,12 63,20 111,52 165,76 171,76 8,0 229,112 284,144 25,14 54,30 65,36 50,27 248,162 371,254 220,166 286,231 359,354 l 36,60 -3,162 -3,162 -45,40 c -25,21 -64,47 -87,58 -32,14 -48,30 -66,67 -48,94 -124,141 -240,150 -76,6 -185,-9 -241,-32 -30,-13 -44,-9 -128,36 -29,15 -179,10 -218,-8 z"/><path fill="#1f2433" d="m 4190,2903 c -19,-9 -51,-23 -70,-32 -39,-18 -104,-66 -167,-125 -23,-21 -55,-49 -70,-62 -16,-12 -44,-37 -63,-54 -19,-17 -59,-47 -88,-67 l -54,-35 -216,5 c -142,3 -236,10 -272,20 -68,18 -203,71 -250,99 -42,25 -96,42 -215,68 -190,42 -414,14 -602,-77 -82,-40 -107,-57 -201,-138 -42,-35 -132,-153 -132,-171 0,-19 -25,-29 -100,-43 -124,-24 -254,-150 -303,-295 -33,-95 -18,-212 44,-344 16,-35 29,-67 29,-72 0,-10 74,-119 138,-205 60,-79 150,-169 237,-236 39,-29 72,-56 75,-60 10,-12 152,-79 169,-79 9,0 22,-5 28,-11 7,-7 56,-14 111,-17 94,-4 101,-3 160,26 92,46 130,79 179,155 l 44,69 82,-8 c 107,-10 471,-7 567,5 41,5 109,17 150,26 41,9 93,20 115,24 77,16 180,44 212,58 17,7 38,13 46,13 9,0 18,4 21,9 3,4 20,11 38,15 18,3 47,12 63,20 111,52 165,76 171,76 8,0 229,112 284,144 25,14 54,30 65,36 50,27 248,162 371,254 229,172 292,236 370,374 43,75 44,78 44,169 0,74 -4,100 -21,133 -23,44 -83,96 -141,122 -27,12 -44,30 -62,65 -75,147 -236,189 -448,115 -45,-16 -48,-15 -95,7 -26,12 -56,26 -65,32 -27,14 -139,9 -178,-8 z m 149,-112 c 19,-12 5,-33 -54,-78 -28,-21 -63,-49 -79,-63 -159,-136 -260,-210 -286,-210 -21,0 -69,43 -62,55 7,12 179,166 251,225 23,19 54,40 69,45 15,6 36,16 47,22 23,14 94,17 114,4 z m 426,-11 c 3,-5 15,-10 26,-10 19,0 59,-33 59,-49 0,-9 -82,-41 -105,-41 -30,0 -213,-112 -350,-214 -179,-134 -187,-139 -292,-192 -90,-46 -96,-45 -108,17 -7,36 7,79 24,79 18,0 181,119 275,201 115,100 212,163 301,195 63,23 160,31 170,14 z M 2745,2593 c 39,-8 95,-28 125,-44 30,-16 58,-29 63,-29 4,0 31,-12 60,-26 122,-60 189,-71 508,-83 119,-5 225,-14 235,-20 11,-5 36,-18 58,-27 21,-10 51,-35 67,-57 24,-33 29,-50 29,-99 0,-71 -18,-114 -68,-159 -96,-87 -210,-105 -543,-85 -213,13 -339,-8 -406,-68 -25,-21 -30,-50 -10,-63 14,-9 47,-5 62,7 21,17 187,22 395,11 235,-13 371,-5 450,26 86,34 146,75 181,125 19,26 42,59 52,72 9,13 63,47 120,76 108,54 117,59 185,103 24,15 47,27 52,27 5,0 13,6 17,14 8,14 208,166 219,166 3,0 20,11 37,24 18,13 65,41 106,61 65,33 87,38 163,43 l 88,5 45,-45 c 42,-43 45,-49 45,-99 -1,-56 -22,-112 -70,-179 -33,-46 -177,-183 -254,-242 -34,-25 -68,-53 -75,-62 -7,-9 -19,-16 -26,-16 -7,0 -18,-6 -24,-14 -10,-12 -145,-106 -202,-141 -241,-146 -472,-262 -634,-315 -38,-13 -79,-27 -90,-31 -64,-27 -150,-48 -370,-93 -238,-49 -574,-50 -765,-1 -30,8 -95,24 -145,35 -49,12 -99,25 -110,29 -53,23 -113,41 -133,41 -16,0 -22,-6 -22,-22 1,-48 92,-115 201,-147 41,-13 80,-24 87,-26 23,-8 12,-52 -22,-87 -57,-59 -109,-80 -195,-79 -170,0 -345,119 -549,371 -111,138 -175,271 -188,392 -10,87 16,148 96,229 70,70 124,99 134,72 3,-8 1,-23 -5,-34 -33,-62 11,-250 71,-304 38,-34 45,-9 41,148 -2,124 0,152 19,209 28,89 66,143 159,230 116,108 261,177 426,202 52,8 237,-5 310,-21 z"/></g></svg>