<svg xmlns="http://www.w3.org/2000/svg" viewBox="0 0 24.511699 16.346708" fill-rule="evenodd"><g
     id="layer1"
     transform="translate(-101.56714,-99.207521)">
    <g
       class="orange-hand"
       id="orange-hand">
      <g
         id="g93"
         transform="matrix(-0.50078215,0.52192496,0.52192496,0.50078215,94.60816,313.82454)">
        <path
           style="fill:#ffa76d;fill-opacity:1;stroke:#0000ff;stroke-width:0.329372;stroke-linecap:round;stroke-linejoin:round;stroke-dasharray:none;stroke-opacity:1;paint-order:fill markers stroke"
           d="m -709.2375,-838.54875 c -9.33301,0.61995 -18.41937,3.15339 -27.42998,5.52156 -9.05545,2.64712 -18.59035,5.1895 -25.85803,11.55128 -11.47816,9.27207 -18.69404,22.68306 -23.61895,36.35881 -0.7993,2.39658 -1.53865,4.82585 -1.9593,7.32112 -0.49385,-2.65434 0.25285,-5.8214 -1.47173,-8.09565 -1.90567,-1.62264 -4.10271,0.45476 -5.38785,1.87045 -3.32358,2.67005 -4.4063,7.16713 -3.87625,11.24927 1.25552,9.35014 5.60347,18.28972 12.03906,25.17132 2.76876,2.86672 6.49592,5.50823 10.70265,4.84468 2.40534,-0.3501 5.61862,-0.5969 6.86391,-3.02005 0.39732,-2.09208 -2.12818,-3.08175 -3.39054,-4.27732 -1.23094,-0.96757 -2.40117,-2.01494 -3.47961,-3.15054 5.9241,2.62517 11.96936,5.61197 18.61277,5.56919 6.7349,0.40711 13.73356,-0.41747 19.6516,-3.87222 7.987,-4.3302 14.50839,-11.08914 23.08526,-14.38467 4.65008,-2.06242 9.59446,-3.46828 14.20155,-5.58239 2.74343,-2.78808 1.79802,-7.7486 -0.82382,-10.3146 -3.69003,-3.25758 -9.07061,-3.10683 -13.6828,-2.66644 -5.35593,0.53466 -10.00306,3.49374 -15.1912,4.51889 -3.20745,0.36568 -7.05371,0.11633 -9.06185,-2.80162 -2.99446,-3.03189 -2.65331,-8.0255 -0.35523,-11.35576 3.21504,-5.44073 8.08851,-9.62374 12.38949,-14.17314 0.85643,-0.51109 1.58674,-2.40658 2.67508,-1.39057 5.38097,3.45019 11.0237,7.20493 17.62978,7.50052 4.37749,0.29026 9.68685,0.35945 12.66717,-3.47284 1.63977,-2.09364 1.8374,-5.42498 0.33588,-7.61735 -3.19737,-2.96031 -7.53408,-4.2653 -11.3693,-6.18989 -6.164,-2.5541 -12.16054,-5.74138 -18.70355,-7.22418 -5.46988,-0.90764 -10.62686,1.91659 -15.55899,3.85044 -4.62847,1.92661 -9.05399,4.42815 -13.78423,5.96771 5.68407,-4.11323 11.92556,-7.40906 18.52766,-9.71262 6.45373,-2.30353 13.66869,-1.79919 19.88837,0.99301 2.3922,0.7861 4.57515,2.59036 7.12245,2.69709 2.64806,-1.53485 4.69911,-4.0095 6.64433,-6.34534 1.51962,-1.86508 1.76703,-4.86957 -0.27573,-6.46448 -2.04814,-2.02623 -4.86366,-3.16116 -7.75807,-2.87367 z"
           id="path93"
           transform="matrix(0.26458333,0,0,0.26458333,-28.491819,30.034714)" />
        <path
           d="m -235.55018,-166.02215 c -1.25101,-0.5495 -2.8782,-2.50425 -3.9643,-4.76236 -0.8189,-1.70256 -0.99225,-2.35491 -1.01117,-3.80523 -0.0156,-1.19412 0.12328,-2.02226 0.43691,-2.60582 0.48288,-0.89849 1.64689,-1.65813 2.54079,-1.65813 0.38799,0 0.73916,-0.44032 1.31884,-1.65364 1.83106,-3.83254 4.43139,-7.0007 6.9517,-8.46971 2.17032,-1.26501 6.83165,-2.6004 12.19517,-3.49371 3.67778,-0.61254 5.49005,2.41997 2.76686,4.62984 -0.48116,0.39046 -0.47183,0.41862 0.25189,0.75984 2.64004,1.24473 2.97986,1.58003 2.99211,2.95236 0.006,0.71332 -0.1891,1.13176 -0.80339,1.71979 -0.77068,0.73774 -0.92816,0.77711 -3.10885,0.77711 -2.0078,0 -2.48688,-0.0962 -3.80454,-0.76385 l -1.50749,-0.76386 -1.34933,1.12973 c -2.34456,1.96298 -2.92913,3.95534 -1.4457,4.92732 0.63256,0.41447 0.76281,0.3959 2.76054,-0.39353 2.35247,-0.92961 4.54603,-1.09437 5.81737,-0.43693 1.15797,0.59881 1.86231,1.65774 1.86231,2.79989 0,1.26594 -0.68932,1.8496 -3.1068,2.63061 -2.3363,0.75478 -3.00466,1.1156 -5.40825,2.91964 -2.8634,2.14916 -4.47437,2.70358 -7.53066,2.59171 -1.94326,-0.0711 -2.51628,-0.004 -2.91041,0.34042 -1.23367,1.07837 -2.47059,1.27551 -3.9436,0.62851 z m 3.15415,-1.19639 c 0.22404,-0.23468 0.16901,-0.38868 -0.22023,-0.6162 -0.78547,-0.45913 -2.07865,-1.76269 -1.91299,-1.92835 0.0803,-0.0803 0.93965,0.2446 1.90956,0.72209 1.44467,0.7112 2.15357,0.8879 3.92105,0.97734 2.66963,0.1351 4.46191,-0.4636 6.87147,-2.29538 2.25783,-1.71643 3.19666,-2.24713 5.34025,-3.01874 1.01864,-0.36668 2.06044,-0.74947 2.3151,-0.85065 0.65496,-0.26021 0.61262,-1.76203 -0.067,-2.37708 -1.09369,-0.98978 -3.60268,-0.93728 -5.93261,0.12412 -1.67947,0.76509 -3.0822,0.7107 -3.94589,-0.15299 -1.61084,-1.61084 -1.09241,-3.34333 1.87546,-6.2674 l 1.82608,-1.79914 1.36726,0.9201 c 2.90838,1.95719 6.92723,1.74685 6.92723,-0.36257 0,-0.93337 -0.15559,-1.0505 -3.175,-2.39028 -4.5094,-2.00093 -5.01549,-2.13581 -6.50333,-1.73328 -0.71603,0.19372 -2.30761,0.84314 -3.53684,1.44316 -2.27683,1.11137 -2.92441,1.2951 -2.92441,0.82967 0,-0.33136 1.46394,-1.248 3.83646,-2.40218 2.47173,-1.20244 4.79143,-1.26686 7.07537,-0.19648 l 1.51912,0.71194 0.92828,-0.87548 c 0.51055,-0.48151 0.92827,-1.12255 0.92827,-1.42454 0,-0.70873 -0.95666,-1.37283 -1.97762,-1.37283 -2.22478,0 -9.19128,1.75822 -11.88118,2.99859 -1.59004,0.7332 -3.72258,2.58931 -5.04547,4.39144 -1.78698,2.43435 -3.83949,7.07898 -3.84703,8.70546 -0.002,0.37746 -0.13138,0.57308 -0.33359,0.50341 -0.20917,-0.0721 -0.32658,-0.61503 -0.31944,-1.47726 0.0129,-1.55943 -0.32002,-1.74009 -1.33548,-0.72463 -0.86446,0.86447 -1.06646,1.85245 -0.7182,3.51279 0.53404,2.54603 2.10372,5.1953 3.76218,6.3497 0.71732,0.4993 1.15689,0.61573 1.95026,0.51655 0.56333,-0.0704 1.15864,-0.26883 1.32292,-0.4409 z"
           style="fill:#000000"
           id="path1-2" />
      </g>
    </g>
  </g></svg>