<svg xmlns="http://www.w3.org/2000/svg" viewBox="0 0 18.683429 20.623068" fill-rule="evenodd"><g
     id="layer1"
     transform="translate(-191.19877,-111.01541)">
    <g
       class="green-hand"
       id="green-hand">
      <g
         id="g83"
         transform="matrix(-0.71301495,0,0,0.71301495,60.51157,42.85462)">
        <path
           style="fill:#76de76;fill-opacity:1;stroke:#0000ff;stroke-width:0.465802;stroke-linecap:round;stroke-linejoin:round;stroke-dasharray:none;stroke-opacity:1;paint-order:fill markers stroke"
           d="m -636.60869,250.57901 c -3.06222,-0.15553 -5.27039,2.50889 -5.5267,5.38628 -1.88118,9.13346 -0.38216,19.51488 -6.62754,27.22509 -6.95093,8.74983 -16.86066,16.01847 -19.53361,27.44815 -0.33335,1.23154 -0.5772,2.79695 -0.99253,3.81766 -0.55564,-4.01061 1.8148,-7.87675 1.14017,-11.8357 -1.55753,-2.53538 -4.80592,-0.25538 -6.38979,1.08882 -6.85304,5.27426 -7.83259,14.79932 -7.02578,22.80645 0.9921,8.03105 4.01915,17.00312 11.45619,21.19611 2.09699,0.59256 5.36369,1.6344 6.83776,-0.53999 -0.0335,-3.71561 -2.96528,-6.92964 -3.46141,-10.55433 5.87595,10.63746 17.67485,18.00313 29.92747,17.82617 3.50677,-0.0596 7.35417,0.58697 10.56154,-1.0182 0.50821,-2.50414 -2.55685,-4.12408 -3.0193,-6.56255 -1.84006,-4.44841 1.55371,-8.33546 2.70558,-12.3757 0.32701,-2.73729 -1.58465,-5.20097 -1.14719,-8.00198 -0.29349,-3.90688 2.91886,-7.00893 3.34166,-10.71001 -3.13437,-3.74272 -3.2222,-9.64205 -0.77268,-13.7662 3.50384,-4.58691 10.06536,-4.20029 15.23912,-4.01654 2.25115,0.1451 -1.72969,0.50211 -2.47908,0.62414 -4.99222,0.52519 -11.38112,1.77395 -13.10827,7.26462 -1.64568,5.91638 4.16334,11.1863 9.63161,11.96249 8.50898,1.07465 18.36294,0.0166 24.57488,-6.51361 4.32966,-4.39862 3.45257,-11.81496 -0.78632,-15.94784 -5.36424,-5.41938 -13.49782,-5.45021 -20.59273,-5.40989 -4.44558,-0.25783 -9.25225,0.56411 -13.4252,-1.26499 -1.75349,-2.32468 -0.056,-5.43167 0.45173,-7.96349 2.46931,-7.68359 4.4389,-17.07835 -0.73095,-24.13357 -2.38486,-3.23261 -6.05613,-6.07805 -10.24863,-6.03139 z"
           id="path81"
           transform="matrix(0.26458333,0,0,0.26458333,-28.491819,30.034714)" />
        <path
           style="fill:#76de76;fill-opacity:1;stroke:#0000ff;stroke-width:0.465802;stroke-linecap:round;stroke-linejoin:round;stroke-dasharray:none;stroke-opacity:1;paint-order:fill markers stroke"
           d="m -592.27072,316.33614 c -7.08298,1.24047 -13.95035,4.9762 -21.33733,3.70693 -3.44468,-0.42685 -7.77404,-2.42528 -10.63617,0.69645 -3.59285,4.38735 -1.58186,11.39954 3.14479,14.13629 6.08743,4.25201 13.91848,3.33055 20.87244,2.5746 8.20402,-1.20074 14.69578,-10.73102 11.45378,-18.66064 -0.64818,-1.33211 -1.94537,-2.48142 -3.49751,-2.45363 z"
           id="path82"
           transform="matrix(0.26458333,0,0,0.26458333,-28.491819,30.034714)" />
        <path
           style="fill:#76de76;fill-opacity:1;stroke:#0000ff;stroke-width:0.465802;stroke-linecap:round;stroke-linejoin:round;stroke-dasharray:none;stroke-opacity:1;paint-order:fill markers stroke"
           d="m -622.95963,336.80049 c -3.82086,0.91225 -6.37262,5.77656 -4.5438,9.41176 2.72038,6.09979 9.89117,8.85046 16.2431,8.18815 5.82138,0.087 12.76572,-1.60908 15.34686,-7.45318 0.72541,-2.2868 1.99487,-5.5854 0.009,-7.54225 -2.8797,-1.22261 -6.17533,0.46279 -9.13334,0.19979 -5.68741,0.24497 -11.45858,-0.43456 -16.73736,-2.62935 -0.38686,-0.0953 -0.78296,-0.18949 -1.18429,-0.17492 z"
           id="path83"
           transform="matrix(0.26458333,0,0,0.26458333,-28.491819,30.034714)" />
        <path
           d="m -199.07057,124.34059 c -0.60746,-0.11657 -1.79517,-0.53868 -2.63933,-0.93804 -1.14144,-0.53998 -1.86551,-0.70855 -2.82484,-0.65763 -1.68761,0.0896 -2.52928,-0.29338 -3.42878,-1.56003 -1.05037,-1.47911 -1.51161,-3.23682 -1.52772,-5.82191 -0.0147,-2.3522 0.44088,-4.17385 1.27952,-5.11661 0.52921,-0.5949 1.92201,-1.23339 2.69055,-1.23339 0.64388,0 4.68422,-4.11614 5.41349,-5.51505 0.34045,-0.65305 0.5649,-1.82668 0.69099,-3.613072 0.10272,-1.45521 0.27197,-2.845 0.37612,-3.08842 0.29349,-0.6859 1.93716,-1.35603 2.86896,-1.16967 2.00883,0.40177 3.62866,2.69518 3.63032,5.139922 4.6e-4,0.67916 -0.25649,2.10303 -0.571,3.16415 -0.3401,1.14747 -0.47447,2.02227 -0.33156,2.1587 0.13576,0.12961 0.93078,0.11541 1.82777,-0.0326 3.92276,-0.64752 7.40778,0.76217 8.08295,3.26956 0.22856,0.84882 0.19717,1.3385 -0.15825,2.46847 -0.40845,1.29857 -0.40977,1.45755 -0.0169,2.01853 0.91005,1.29928 0.23946,4.59816 -1.03404,5.08685 -0.2752,0.1056 -0.39152,0.55329 -0.39152,1.50679 0,1.62848 -0.57102,2.71013 -1.84813,3.50085 -0.85349,0.52843 -1.2964,0.57365 -5.95313,0.60775 -2.76707,0.0203 -5.52805,-0.0585 -6.13552,-0.1751 z m 4.67636,-0.93223 c 0,-0.0862 -0.23812,-0.45943 -0.52917,-0.82943 -0.6807,-0.86538 -0.67178,-2.08396 0.0236,-3.22463 0.44654,-0.73247 0.49643,-1.02278 0.26359,-1.5338 -0.42785,-0.93903 -0.34973,-1.95839 0.2385,-3.11217 0.46726,-0.91651 0.48197,-1.07946 0.1323,-1.46584 -0.23242,-0.25682 -0.39341,-0.95119 -0.39341,-1.69679 0,-2.11987 1.63656,-3.22004 4.48331,-3.01389 1.82026,0.13181 1.61374,0.65114 -0.32069,0.80641 -1.83852,0.14758 -2.6346,0.51694 -3.13685,1.45539 -0.42823,0.80017 -0.0717,1.82569 0.88148,2.53529 1.46929,1.09385 5.42836,0.75097 7.17281,-0.62121 1.82369,-1.43452 1.37915,-4.08413 -0.85893,-5.11948 -1.03968,-0.48096 -1.63572,-0.55156 -4.24139,-0.50236 -4.15923,0.0785 -4.53339,-0.2863 -3.45058,-3.36453 0.60427,-1.71782 0.67117,-3.64589 0.16827,-4.849502 -0.7668,-1.83521 -3.03048,-2.91139 -3.90618,-1.85705 -0.22168,0.26691 -0.42441,1.42635 -0.52044,2.97656 -0.2158,3.483252 -0.79926,4.740182 -3.32147,7.155322 -2.04774,1.9608 -3.11654,3.71432 -3.43562,5.63665 -0.0906,0.5457 -0.26051,0.99218 -0.37762,0.99218 -0.43615,0 -0.50188,-0.9866 -0.15486,-2.3244 0.341,-1.31457 0.33349,-1.37976 -0.15896,-1.37976 -0.28427,0 -0.90791,0.39104 -1.38584,0.86898 -2.82383,2.82382 -1.02578,11.03727 2.41623,11.03727 0.75764,0 0.76628,-0.13493 0.0932,-1.45521 -0.55019,-1.07916 -0.69026,-1.98438 -0.30705,-1.98438 0.12216,0 0.35764,0.29744 0.52327,0.66098 0.84099,1.84577 3.31836,3.65425 5.73691,4.18795 0.81739,0.18038 4.36562,0.19781 4.36562,0.0215 z m 6.51761,-0.27466 c 1.15721,-0.54913 1.68447,-1.30588 1.68447,-2.41762 0,-0.87628 -0.003,-0.87848 -0.99218,-0.67243 -1.54327,0.32156 -4.20916,0.14952 -5.23636,-0.33792 -0.8777,-0.41649 -0.96077,-0.41478 -1.45224,0.03 -1.04829,0.94869 -0.48061,2.57 1.19849,3.42289 1.05215,0.53444 3.64747,0.52096 4.79782,-0.0249 z m 1.64377,-4.44237 c 1.62537,-0.84052 2.47467,-3.26144 1.56206,-4.45265 -0.30304,-0.39556 -0.48578,-0.37821 -2.18281,0.20718 -2.0251,0.69856 -3.42174,0.80148 -4.98513,0.36737 -1.32685,-0.36844 -2.02633,0.1849 -2.02633,1.60297 0,1.14344 0.74202,1.96867 2.29002,2.54683 1.2504,0.46701 4.20418,0.31678 5.34219,-0.2717 z"
           style="fill:#000000"
           id="path1-8" />
      </g>
    </g>
  </g></svg>