<svg xmlns="http://www.w3.org/2000/svg" viewBox="0 0 354.5 355.85086" fill-rule="evenodd"><g transform="matrix(0.1,0,0,-0.1,-171.5,368)"><path fill="#f4cdde" d="m 3040,3644 c -71,-46 -80,-57 -124,-139 -35,-67 -36,-70 -36,-181 0,-103 3,-124 34,-217 19,-57 55,-146 80,-198 24,-52 47,-101 50,-109 3,-8 13,-26 22,-40 21,-31 -69,60 -161,164 -152,171 -331,309 -437,335 -61,15 -172,14 -224,-2 -55,-16 -137,-81 -164,-129 -12,-22 -28,-65 -36,-96 -44,-185 33,-384 233,-603 43,-47 112,-123 153,-169 41,-46 82,-91 90,-100 45,-48 43,-53 -10,-22 -30,18 -84,46 -120,63 -36,17 -72,35 -80,40 -8,5 -19,11 -25,13 -5,1 -26,9 -45,15 -73,27 -126,33 -234,29 -119,-4 -153,-17 -219,-77 -64,-59 -72,-83 -72,-231 v -135 l 37,-60 c 56,-91 206,-240 287,-286 23,-12 41,-26 41,-30 0,-4 21,-20 48,-35 26,-15 49,-31 52,-34 3,-4 37,-25 75,-45 39,-21 77,-43 85,-51 8,-7 26,-17 40,-23 14,-6 34,-17 45,-23 11,-7 51,-33 90,-57 137,-87 191,-138 293,-274 106,-142 185,-227 272,-298 30,-24 61,-50 68,-56 7,-7 18,-13 23,-13 5,0 45,-21 88,-46 74,-43 135,-64 244,-84 79,-15 82,-17 120,-99 27,-56 52,-92 88,-125 28,-25 55,-46 61,-46 7,0 19,-6 27,-13 43,-37 283,-48 396,-19 71,18 209,75 253,104 24,16 62,38 83,49 101,51 304,232 406,361 17,20 43,65 60,100 66,134 68,144 67,273 0,146 -17,189 -107,279 l -59,60 8,45 c 5,25 9,132 10,236 1,251 11,311 63,412 23,45 60,105 81,134 21,30 52,72 69,95 16,23 46,74 67,115 20,41 43,86 50,101 9,16 14,60 14,116 0,98 -23,168 -74,230 -57,67 -163,102 -308,102 -172,0 -276,-46 -394,-173 -54,-58 -124,-156 -124,-174 0,-4 -16,-48 -36,-98 -20,-49 -40,-102 -46,-117 -6,-16 -14,-28 -17,-28 -21,0 -221,250 -221,276 0,4 -9,17 -19,28 -20,22 -56,86 -159,286 -33,63 -74,142 -92,175 -18,33 -47,87 -64,120 -17,33 -45,82 -63,110 -18,27 -33,54 -33,60 0,6 -38,52 -84,101 -67,72 -100,98 -158,127 -70,35 -78,37 -173,37 -98,0 -102,-1 -155,-36 z"/><path fill="#1f2433" d="m 3060,3624 c -71,-46 -80,-57 -124,-139 -34,-64 -36,-73 -36,-161 0,-80 5,-109 34,-197 28,-86 102,-254 137,-317 5,-8 26,-47 46,-87 36,-70 39,-94 11,-76 -16,9 -144,145 -243,257 -96,109 -240,235 -322,283 -145,85 -278,85 -390,-1 -90,-68 -138,-201 -114,-314 34,-159 92,-259 261,-447 144,-161 140,-156 230,-255 118,-130 119,-144 2,-84 -42,22 -115,60 -162,84 -47,24 -92,47 -100,52 -8,4 -19,10 -25,12 -5,1 -26,9 -45,15 -74,27 -118,33 -210,29 -101,-5 -140,-20 -203,-77 -62,-57 -72,-86 -72,-211 v -115 l 37,-60 c 56,-91 206,-240 287,-286 23,-12 41,-26 41,-30 0,-4 21,-20 48,-35 26,-15 49,-31 52,-34 3,-4 37,-25 75,-45 39,-21 77,-43 85,-51 8,-7 26,-17 40,-23 14,-6 34,-17 45,-23 11,-7 51,-33 90,-57 137,-87 191,-138 293,-274 106,-142 185,-227 272,-298 30,-24 61,-50 68,-56 7,-7 18,-13 23,-13 5,0 45,-21 88,-46 74,-43 135,-64 244,-84 79,-15 82,-17 120,-99 27,-56 52,-92 88,-125 28,-25 55,-46 61,-46 7,0 19,-6 27,-13 43,-37 244,-47 356,-19 70,18 208,74 253,104 24,16 62,38 83,49 101,51 304,232 406,361 17,20 43,65 60,100 64,131 68,146 67,253 -1,124 -21,173 -107,259 l -59,60 8,66 c 4,36 9,151 9,255 2,248 11,311 64,412 23,45 60,105 81,134 21,30 52,72 69,95 16,23 46,74 67,115 20,41 43,86 50,101 8,14 14,57 14,96 0,108 -57,218 -133,257 -77,40 -140,55 -229,55 -151,0 -261,-51 -374,-173 -54,-58 -124,-156 -124,-174 0,-7 -51,-139 -87,-225 -9,-21 -20,-38 -25,-38 -27,0 -248,263 -248,296 0,4 -9,17 -19,28 -20,22 -56,86 -159,286 -33,63 -74,142 -92,175 -18,33 -47,87 -64,120 -17,33 -45,82 -63,110 -18,27 -33,54 -33,60 0,6 -38,52 -84,101 -67,72 -100,98 -158,127 -66,33 -81,37 -153,37 -75,0 -84,-2 -135,-36 z m 252,-133 c 57,-39 117,-103 165,-176 88,-133 104,-161 110,-185 3,-14 16,-38 28,-55 12,-16 34,-57 49,-90 15,-33 31,-67 36,-75 6,-8 23,-42 40,-75 81,-161 211,-372 240,-390 5,-3 25,-29 45,-58 19,-29 60,-77 90,-107 30,-30 55,-60 55,-67 0,-7 -25,-28 -56,-48 -136,-88 -237,-221 -273,-364 -45,-181 -14,-445 49,-411 15,8 19,29 25,137 7,132 27,220 68,298 37,72 98,154 140,191 36,30 184,109 238,127 18,6 45,76 58,153 26,143 107,299 203,390 83,79 145,107 250,112 75,4 93,1 133,-18 25,-12 58,-38 73,-58 23,-30 27,-45 27,-97 0,-79 -32,-141 -184,-355 -63,-89 -102,-169 -129,-265 -24,-85 -25,-102 -24,-305 2,-261 -10,-335 -81,-490 -11,-25 -23,-47 -27,-50 -4,-3 -15,-23 -25,-44 -10,-21 -36,-62 -57,-90 -43,-57 -43,-56 -24,-81 12,-16 17,-17 43,-6 42,17 131,106 180,179 23,35 43,68 45,74 7,21 43,-9 66,-55 25,-49 30,-162 12,-229 -36,-128 -291,-393 -485,-503 -86,-49 -139,-75 -153,-75 -8,0 -26,-6 -40,-14 -92,-46 -244,-61 -317,-30 -79,33 -144,94 -145,135 0,24 5,26 68,37 131,23 178,38 229,72 103,70 81,127 -33,86 -22,-7 -61,-16 -89,-20 -27,-4 -89,-14 -138,-23 -73,-13 -98,-14 -155,-4 -37,7 -91,17 -119,22 -68,12 -119,33 -228,94 -69,38 -113,73 -189,150 -54,54 -110,117 -125,140 -14,22 -31,45 -38,50 -6,6 -22,26 -35,45 -43,65 -103,131 -157,173 -54,42 -82,60 -207,131 -38,21 -91,53 -119,71 -43,27 -78,49 -163,100 -40,24 -78,51 -97,68 -11,11 -36,29 -55,42 -63,40 -188,170 -224,232 -29,50 -36,71 -36,116 0,50 3,57 42,95 69,68 176,78 293,27 120,-53 278,-134 365,-187 19,-12 60,-35 90,-50 30,-16 69,-37 85,-48 17,-10 47,-24 68,-30 31,-9 37,-15 37,-38 0,-15 -6,-36 -13,-47 -8,-11 -19,-42 -26,-69 -10,-42 -10,-51 4,-67 10,-10 23,-15 31,-12 14,5 74,87 74,101 0,13 75,118 144,202 81,97 222,237 281,278 22,15 42,29 45,32 4,5 73,49 135,87 11,7 53,29 93,49 83,42 95,54 90,86 -2,19 -10,24 -41,26 -24,2 -45,-2 -55,-11 -24,-21 -107,-57 -130,-57 -13,0 -31,20 -56,61 -20,33 -36,62 -36,65 0,2 -27,61 -61,132 -33,70 -81,170 -106,222 -25,52 -49,102 -53,110 -45,78 -72,138 -84,182 -8,29 -19,66 -25,81 -6,16 -11,55 -11,88 0,96 44,174 120,211 31,16 118,-1 162,-31 z m -855,-393 c 118,-66 250,-188 503,-468 52,-57 148,-158 212,-224 136,-138 135,-124 16,-202 -67,-45 -201,-179 -221,-221 -15,-32 -47,-40 -66,-16 -9,11 -43,53 -75,94 -33,41 -108,124 -168,184 -59,61 -118,125 -130,141 -13,17 -51,62 -84,100 -166,186 -222,267 -248,356 -35,122 -11,196 83,260 38,26 127,24 178,-4 z"/></g></svg>