<?xml version="1.0" encoding="UTF-8"?>
<svg xmlns="http://www.w3.org/2000/svg" viewBox="0 0 100 100" width="64" height="64" role="img" aria-label="Let's Encode! logo: a blue hand pointing at a music note">
  <defs><filter id="noteback" x="-25%" y="-10%" width="150%" height="120%"><feMorphology in="SourceAlpha" operator="dilate" radius="2.0" result="d"/><feFlood flood-color="#ffffff" flood-opacity="1.0"/><feComposite operator="in" in2="d" result="halo"/><feMerge><feMergeNode in="halo"/><feMergeNode in="SourceGraphic"/></feMerge></filter></defs>
  <g filter="url(#noteback)"><g transform="translate(46.000,0) scale(3.4435)"><g transform="translate(-87.8263,-2.2206)"><g transform="translate(-73.818741,-93.662498)"><g class="note" id="note"><g id="g21-0-4-5" transform="matrix(2.9706677,0,0,2.9706677,65.75444,498.39952)" style="fill:#000000;fill-opacity:1;stroke:#000000;stroke-opacity:1">
      <path d="m 32.279156,-127.55052 h 4.892002" stroke-width="0.32031" id="path131-6-1-9" style="fill:#000000;fill-opacity:1;stroke:#000000;stroke-opacity:1"/>
      
      <g id="y198t3iu-4-7-9" class="stem" transform="matrix(0.01455953,0,0,0.00695652,-68.429113,-181.50041)" style="fill:#000000;fill-opacity:1;stroke:#000000;stroke-width:29.8093;stroke-dasharray:none;stroke-opacity:1">
        <path d="M 7191,7763 V 6613" stroke-width="18" id="path134-0-0-0" style="fill:#000000;fill-opacity:1;stroke:#000000;stroke-width:29.8093;stroke-dasharray:none;stroke-opacity:1"/>
      </g>
      <g id="num8rai-1-9-6" class="note" transform="matrix(0.01455953,0,0,0.01455953,-68.429113,-241.30413)" style="fill:#000000;fill-opacity:1;stroke:#000000;stroke-opacity:1">
        <g class="notehead" id="g134-7-2-7" style="fill:#000000;fill-opacity:1;stroke:#000000;stroke-opacity:1">
          <g id="use134-0-2-1" transform="matrix(0.72,0,0,0.72,6965,7813)" style="fill:#000000;fill-opacity:1;stroke:#000000;stroke-opacity:1">
            <path transform="scale(1,-1)" d="m 333,39 c 1,5 1,10 1,15 0,64 -74,121 -123,121 -5,0 -10,-1 -14,-2 C 88,139 0,66 0,-47 c 0,-16 2,-33 6,-51 8,-35 24,-61 59,-70 17,-4 34,-6 51,-6 114,0 216,94 217,213 z M 148,-71 c -19,1 -27,1 -36,3 -23,5 -59,0 -64,25 -5,23 20,49 42,62 36,19 70,47 113,47 5,0 9,0 13,-1 29,-4 43,-28 61,-46 1,-1 2,-4 2,-7 0,-3 -1,-7 -2,-8 -40,-37 -87,-60 -129,-75 z" id="path11-8-3-4" style="fill:#000000;fill-opacity:1;stroke:#000000;stroke-opacity:1"/>
          </g>
        </g>
      </g>
    </g>
    </g></g></g></g></g>
  <g transform="translate(-245.0340,-76.7724)"><g transform="rotate(12.0) scale(3.5757)"><g transform="translate(-73.818741,-93.662498)"><g class="blue-hand" id="blue-hand"><g id="g31" transform="matrix(0.49406185,0.48471606,-0.48471606,0.49406185,301.88844,151.90373)">
      <path style="fill:#6dc3ff;fill-opacity:1;stroke:#0000ff;stroke-width:0.329372;stroke-linecap:round;stroke-linejoin:round;stroke-dasharray:none;stroke-opacity:1;paint-order:fill markers stroke" d="m -617.54269,222.38588 c -4.28784,0.25411 -7.18007,3.96084 -10.3468,6.39653 -8.60674,7.58765 -20.51045,9.76613 -29.28604,17.07396 -5.32159,4.75696 -8.95052,11.13235 -11.7936,17.6044 -0.48805,1.70716 -0.51818,0.65441 -0.3916,-0.48285 0.12762,-2.94514 1.51344,-5.75934 2.00735,-8.70989 -0.18897,-2.44295 -3.3562,-2.23168 -4.93091,-1.29755 -6.2653,2.93112 -9.55507,9.87912 -9.98558,16.52953 -0.68964,8.75181 -0.26574,18.35777 5.01248,25.75301 2.22445,3.05257 6.3245,5.13626 10.07933,4.04741 1.68932,-1.23407 0.11813,-3.49118 -0.16157,-5.06715 -0.64618,-1.89207 -1.38539,-4.13019 -1.41682,-6.08032 2.8819,5.76458 5.92774,11.99025 11.78971,15.28294 6.36848,3.65268 13.34732,7.06016 20.87988,6.82754 6.00132,-0.0657 12.13749,0.13071 17.99837,-1.34004 6.28708,-1.89967 12.52492,-6.57516 13.83277,-13.34031 0.37704,-1.86029 0.32746,-4.93853 -2.17808,-5.13857 -0.57106,-0.1536 -1.93147,0.36945 -1.98009,-0.0738 2.39035,-1.9681 5.57023,-2.93903 7.47325,-5.53118 3.05192,-3.67616 3.74673,-8.97825 2.57638,-13.50427 -0.7482,-2.58326 -3.30926,-4.09439 -5.91018,-4.08612 -1.03701,-0.11171 -2.09839,-0.27579 -3.04047,-0.74835 12.05731,-1.4497 24.2711,-0.88068 36.2945,-2.64673 4.0563,-0.57551 8.36862,-2.48485 9.96338,-6.54391 1.87779,-4.19658 -1.35414,-8.86887 -5.29686,-10.39571 -4.58395,-1.84977 -9.68841,-1.03204 -14.50329,-1.20462 -15.07836,0.16239 -30.20292,0.69007 -45.24638,-0.0339 -1.10827,-0.0932 -2.20899,-0.32225 -3.25891,-0.68991 4.19071,-0.54497 8.51719,-0.0387 12.64983,-0.97982 3.8182,-1.89226 4.96507,-6.62259 5.38991,-10.51543 0.41177,-3.63193 -0.15357,-7.78254 -3.25664,-10.14891 -0.7804,-0.78377 -1.8896,-1.03644 -2.96332,-0.956 z" id="path31" transform="matrix(0.26458333,0,0,0.26458333,-28.491819,30.034714)"/>
      <path d="m -199.1306,112.5733 c -1.68676,-0.47376 -3.4261,-1.32464 -4.24799,-2.07811 -0.44998,-0.41253 -0.97568,-0.565 -2.00586,-0.58178 -1.7565,-0.0286 -2.80071,-0.72567 -3.58429,-2.39266 -1.16438,-2.4771 -1.14402,-7.05153 0.0408,-9.17174 0.82277,-1.47229 1.82001,-2.15327 3.23576,-2.20959 0.98414,-0.0392 1.30026,-0.19843 2.01947,-1.01757 0.56158,-0.6396 1.71955,-1.37727 3.39184,-2.16074 3.70503,-1.7358 4.00935,-1.91615 5.31728,-3.15125 2.07075,-1.95545 3.16387,-2.18996 4.52774,-0.97135 1.04221,0.93122 1.32328,2.80154 0.65967,4.38977 -0.2337,0.55932 -0.42491,1.07711 -0.42491,1.15064 0,0.0735 2.48607,0.0471 5.5246,-0.0587 5.23203,-0.18219 5.58981,-0.16353 6.75581,0.35225 1.55832,0.68931 2.16944,1.89137 1.75122,3.44454 -0.52668,1.95593 -1.51799,2.39314 -6.18562,2.72807 -2.05973,0.1478 -3.7727,0.29423 -3.80659,0.32538 -0.0339,0.0312 0.0447,0.42723 0.17456,0.88015 0.30827,1.07489 -0.0852,2.79873 -0.88235,3.86531 -0.39905,0.53395 -0.66663,1.32642 -0.74633,2.2103 -0.16398,1.81881 -1.07736,2.99956 -3.04646,3.93823 -1.30229,0.62081 -1.92614,0.73866 -4.30134,0.81253 -1.88418,0.0586 -3.22504,-0.0391 -4.16702,-0.30368 z m 8.03416,-1.48053 c 1.45346,-0.7206 2.48286,-2.05131 2.48286,-3.20959 0,-0.63916 -0.0977,-0.75708 -0.57072,-0.68848 -0.95878,0.13907 -0.86682,-0.55778 0.1285,-0.97365 1.2852,-0.537 2.07368,-1.73132 2.09549,-3.1741 0.0208,-1.37659 -0.39361,-1.98563 -1.35494,-1.99123 -0.83716,-0.005 -1.48331,-0.37072 -1.26853,-0.71824 0.0858,-0.13875 2.35443,-0.3254 5.04151,-0.41477 5.28518,-0.17578 6.40189,-0.42633 7.17778,-1.61048 0.61669,-0.9412 0.22924,-2.01149 -0.94609,-2.61349 -0.82675,-0.42346 -1.51734,-0.4502 -7.52487,-0.29141 -7.14214,0.18879 -9.65729,0.0366 -9.65729,-0.5843 0,-0.29329 0.43725,-0.37784 1.95394,-0.37784 1.83462,0 1.98276,-0.044 2.42572,-0.72001 0.67794,-1.03468 0.82292,-3.07378 0.27769,-3.9059 -0.69687,-1.06355 -1.60824,-0.87369 -3.24735,0.67651 -0.89272,0.8443 -2.17826,1.68493 -3.46516,2.26591 -3.2222,1.45469 -3.7526,1.75392 -4.91895,2.77507 -0.96901,0.84837 -2.50134,3.36949 -2.95482,4.86155 -0.14858,0.48884 -0.18049,0.49415 -0.41878,0.0697 -0.23474,-0.41812 -0.0379,-1.67621 0.46878,-2.99667 0.24101,-0.62805 -0.84504,-0.45047 -1.71333,0.28015 -1.1606,0.97658 -1.69927,2.55329 -1.71778,5.02807 -0.0266,3.56174 1.3163,6.2177 3.14387,6.2177 0.35264,0 0.63936,-0.0298 0.63717,-0.0661 -0.002,-0.0364 -0.17556,-0.5424 -0.38526,-1.12448 -0.42775,-1.18732 -0.51573,-2.24896 -0.18638,-2.24896 0.11997,0 0.54707,0.71253 0.94913,1.58341 0.85111,1.84356 1.79367,2.72276 3.99301,3.72458 2.09622,0.95484 2.44672,1.01348 5.58644,0.93462 2.21233,-0.0556 2.90103,-0.17836 3.96836,-0.70753 z" style="fill:#000000" id="path1"/>
    </g>
    </g></g></g></g>
</svg>
